<?xml version="1.0" encoding="utf-8"?>
<!-- Svg Vector Icons : http://www.onlinewebfonts.com/icon -->
<!DOCTYPE svg PUBLIC "-//W3C//DTD SVG 1.1//EN" "http://www.w3.org/Graphics/SVG/1.1/DTD/svg11.dtd">
<svg version="1.1" xmlns="http://www.w3.org/2000/svg" xmlns:xlink="http://www.w3.org/1999/xlink" x="0px" y="0px" viewBox="0 0 1000 1000" enable-background="new 0 0 1000 1000" xml:space="preserve">
<metadata> Svg Vector Icons : http://www.onlinewebfonts.com/icon </metadata>
<g><g transform="translate(0.000000,511.000000) scale(0.100000,-0.100000)"><path d="M1763.8,4999.1c-24.6-16.4-45.1-53.3-45.1-77.9c0-28.7,75.9-155.9,172.3-295.4c313.8-445.1,443-707.6,443-890.1c0-266.6-315.8-566.1-699.4-664.5c-332.3-86.1-529.2,51.3-818.3,568.1c-235.9,418.4-379.4,543.5-492.2,424.5c-53.3-59.5-149.7-313.8-194.8-516.8c-28.7-125.1-32.8-223.6-26.7-441c8.2-244.1,18.5-303.6,75.9-469.7c71.8-213.3,131.3-326.1,262.5-498.4c264.6-350.7,658.4-572.2,1013.2-572.2c63.6,0,237.9,22.6,387.6,51.3c307.6,57.4,328.2,59.5,441,28.7c71.8-18.5,358.9-297.4,2139.2-2075.6C5554-1560,6493.3-2509.6,6509.7-2540.4c45.1-86.1,34.9-272.8-32.8-529.2c-125.1-482-57.4-771.2,260.5-1107.5c309.7-328.2,838.8-586.6,1286-627.6c176.4-16.4,258.4,16.4,258.4,102.5c0,26.7-61.5,135.4-137.4,240c-441,623.5-547.6,896.3-436.9,1130.1c90.3,194.8,309.7,365.1,588.6,459.4c361,121,590.7-8.2,845-475.8c153.8-276.9,256.4-426.6,336.3-490.2c135.4-100.5,203.1-55.4,301.5,198.9c102.5,264.6,129.2,438.9,119,754.8c-8.2,244.1-18.4,301.5-77.9,477.9c-133.3,397.9-451.2,775.3-787.6,937.3c-295.3,139.5-461.5,151.8-892.2,69.7c-244.1-49.2-293.3-51.3-391.7-30.8l-112.8,22.6L5578.6,646.9C4446.5,1779,3507.1,2728.6,3490.7,2759.4c-45.1,88.2-34.9,276.9,32.8,535.3c77.9,299.5,80,479.9,12.3,672.7c-114.9,328.2-418.4,631.7-843,842.9C2342.1,4984.7,1878.6,5081.1,1763.8,4999.1z"/></g></g>
</svg>